<svg width="110" height="31" viewBox="0 0 110 31" fill="none" xmlns="http://www.w3.org/2000/svg">
<path d="M0.818182 24V0.727272H3.63636V12.2727H3.90909L14.3636 0.727272H18.0455L8.27273 11.2273L18.0455 24H14.6364L6.54545 13.1818L3.63636 16.4545V24H0.818182ZM27.3665 24.3636C25.6847 24.3636 24.2339 23.9924 23.0142 23.25C21.8021 22.5 20.8665 21.4545 20.2074 20.1136C19.5559 18.7652 19.2301 17.197 19.2301 15.4091C19.2301 13.6212 19.5559 12.0455 20.2074 10.6818C20.8665 9.31061 21.7831 8.24242 22.9574 7.47727C24.1392 6.70455 25.518 6.31818 27.0938 6.31818C28.0028 6.31818 28.9006 6.4697 29.7869 6.77273C30.6733 7.07576 31.4801 7.56818 32.2074 8.25C32.9347 8.92424 33.5142 9.81818 33.946 10.9318C34.3778 12.0455 34.5938 13.4167 34.5938 15.0455V16.1818H21.1392V13.8636H31.8665C31.8665 12.8788 31.6695 12 31.2756 11.2273C30.8892 10.4545 30.3362 9.8447 29.6165 9.39773C28.9044 8.95076 28.0634 8.72727 27.0938 8.72727C26.0256 8.72727 25.1013 8.99242 24.321 9.52273C23.5483 10.0455 22.9536 10.7273 22.5369 11.5682C22.1203 12.4091 21.9119 13.3106 21.9119 14.2727V15.8182C21.9119 17.1364 22.1392 18.2538 22.5938 19.1705C23.0559 20.0795 23.696 20.7727 24.5142 21.25C25.3324 21.7197 26.2831 21.9545 27.3665 21.9545C28.071 21.9545 28.7074 21.8561 29.2756 21.6591C29.8513 21.4545 30.3475 21.1515 30.7642 20.75C31.1809 20.3409 31.5028 19.8333 31.7301 19.2273L34.321 19.9545C34.0483 20.8333 33.59 21.6061 32.946 22.2727C32.3021 22.9318 31.5066 23.447 30.5597 23.8182C29.6127 24.1818 28.5483 24.3636 27.3665 24.3636ZM39.8693 30.5455C39.4148 30.5455 39.0095 30.5076 38.6534 30.4318C38.2973 30.3636 38.0511 30.2955 37.9148 30.2273L38.5966 27.8636C39.2481 28.0303 39.8239 28.0909 40.3239 28.0455C40.8239 28 41.267 27.7765 41.6534 27.375C42.0473 26.9811 42.4072 26.3409 42.733 25.4545L43.233 24.0909L36.7784 6.54545H39.6875L44.5057 20.4545H44.6875L49.5057 6.54545H52.4148L45.0057 26.5455C44.6723 27.447 44.2595 28.1932 43.767 28.7841C43.2746 29.3826 42.7027 29.8258 42.0511 30.1136C41.4072 30.4015 40.6799 30.5455 39.8693 30.5455ZM69.0455 6.54545C68.9091 5.39394 68.3561 4.5 67.3864 3.86364C66.4167 3.22727 65.2273 2.90909 63.8182 2.90909C62.7879 2.90909 61.8864 3.07576 61.1136 3.40909C60.3485 3.74242 59.75 4.20076 59.3182 4.78409C58.8939 5.36742 58.6818 6.0303 58.6818 6.77273C58.6818 7.39394 58.8295 7.92803 59.125 8.375C59.428 8.81439 59.8144 9.18182 60.2841 9.47727C60.7538 9.76515 61.2462 10.0038 61.7614 10.1932C62.2765 10.375 62.75 10.5227 63.1818 10.6364L65.5455 11.2727C66.1515 11.4318 66.8258 11.6515 67.5682 11.9318C68.3182 12.2121 69.0341 12.5947 69.7159 13.0795C70.4053 13.5568 70.9735 14.1705 71.4205 14.9205C71.8674 15.6705 72.0909 16.5909 72.0909 17.6818C72.0909 18.9394 71.7614 20.0758 71.1023 21.0909C70.4508 22.1061 69.4962 22.9129 68.2386 23.5114C66.9886 24.1098 65.4697 24.4091 63.6818 24.4091C62.0152 24.4091 60.572 24.1402 59.3523 23.6023C58.1402 23.0644 57.1856 22.3144 56.4886 21.3523C55.7992 20.3902 55.4091 19.2727 55.3182 18H58.2273C58.303 18.8788 58.5985 19.6061 59.1136 20.1818C59.6364 20.75 60.2955 21.1742 61.0909 21.4545C61.8939 21.7273 62.7576 21.8636 63.6818 21.8636C64.7576 21.8636 65.7235 21.6894 66.5795 21.3409C67.4356 20.9848 68.1136 20.4924 68.6136 19.8636C69.1136 19.2273 69.3636 18.4848 69.3636 17.6364C69.3636 16.8636 69.1477 16.2348 68.7159 15.75C68.2841 15.2652 67.7159 14.8712 67.0114 14.5682C66.3068 14.2652 65.5455 14 64.7273 13.7727L61.8636 12.9545C60.0455 12.4318 58.6061 11.6856 57.5455 10.7159C56.4848 9.74621 55.9545 8.47727 55.9545 6.90909C55.9545 5.60606 56.3068 4.4697 57.0114 3.5C57.7235 2.52273 58.678 1.76515 59.875 1.22727C61.0795 0.681817 62.4242 0.40909 63.9091 0.40909C65.4091 0.40909 66.7424 0.678029 67.9091 1.21591C69.0758 1.74621 70 2.47348 70.6818 3.39773C71.3712 4.32197 71.7348 5.37121 71.7727 6.54545H69.0455ZM83.679 24.3636C81.9972 24.3636 80.5464 23.9924 79.3267 23.25C78.1146 22.5 77.179 21.4545 76.5199 20.1136C75.8684 18.7652 75.5426 17.197 75.5426 15.4091C75.5426 13.6212 75.8684 12.0455 76.5199 10.6818C77.179 9.31061 78.0956 8.24242 79.2699 7.47727C80.4517 6.70455 81.8305 6.31818 83.4062 6.31818C84.3153 6.31818 85.2131 6.4697 86.0994 6.77273C86.9858 7.07576 87.7926 7.56818 88.5199 8.25C89.2472 8.92424 89.8267 9.81818 90.2585 10.9318C90.6903 12.0455 90.9062 13.4167 90.9062 15.0455V16.1818H77.4517V13.8636H88.179C88.179 12.8788 87.982 12 87.5881 11.2273C87.2017 10.4545 86.6487 9.8447 85.929 9.39773C85.2169 8.95076 84.3759 8.72727 83.4062 8.72727C82.3381 8.72727 81.4138 8.99242 80.6335 9.52273C79.8608 10.0455 79.2661 10.7273 78.8494 11.5682C78.4328 12.4091 78.2244 13.3106 78.2244 14.2727V15.8182C78.2244 17.1364 78.4517 18.2538 78.9062 19.1705C79.3684 20.0795 80.0085 20.7727 80.8267 21.25C81.6449 21.7197 82.5956 21.9545 83.679 21.9545C84.3835 21.9545 85.0199 21.8561 85.5881 21.6591C86.1638 21.4545 86.66 21.1515 87.0767 20.75C87.4934 20.3409 87.8153 19.8333 88.0426 19.2273L90.6335 19.9545C90.3608 20.8333 89.9025 21.6061 89.2585 22.2727C88.6146 22.9318 87.8191 23.447 86.8722 23.8182C85.9252 24.1818 84.8608 24.3636 83.679 24.3636ZM102.304 24.3636C100.622 24.3636 99.1714 23.9924 97.9517 23.25C96.7396 22.5 95.804 21.4545 95.1449 20.1136C94.4934 18.7652 94.1676 17.197 94.1676 15.4091C94.1676 13.6212 94.4934 12.0455 95.1449 10.6818C95.804 9.31061 96.7206 8.24242 97.8949 7.47727C99.0767 6.70455 100.455 6.31818 102.031 6.31818C102.94 6.31818 103.838 6.4697 104.724 6.77273C105.611 7.07576 106.418 7.56818 107.145 8.25C107.872 8.92424 108.452 9.81818 108.884 10.9318C109.315 12.0455 109.531 13.4167 109.531 15.0455V16.1818H96.0767V13.8636H106.804C106.804 12.8788 106.607 12 106.213 11.2273C105.827 10.4545 105.274 9.8447 104.554 9.39773C103.842 8.95076 103.001 8.72727 102.031 8.72727C100.963 8.72727 100.039 8.99242 99.2585 9.52273C98.4858 10.0455 97.8911 10.7273 97.4744 11.5682C97.0578 12.4091 96.8494 13.3106 96.8494 14.2727V15.8182C96.8494 17.1364 97.0767 18.2538 97.5312 19.1705C97.9934 20.0795 98.6335 20.7727 99.4517 21.25C100.27 21.7197 101.221 21.9545 102.304 21.9545C103.009 21.9545 103.645 21.8561 104.213 21.6591C104.789 21.4545 105.285 21.1515 105.702 20.75C106.118 20.3409 106.44 19.8333 106.668 19.2273L109.259 19.9545C108.986 20.8333 108.527 21.6061 107.884 22.2727C107.24 22.9318 106.444 23.447 105.497 23.8182C104.55 24.1818 103.486 24.3636 102.304 24.3636Z" fill="#79260C"/>
</svg>
